<svg xmlns="http://www.w3.org/2000/svg" width="37.159931" height="46.099308"><path d="m 27.158594,31.468056 c -0.466,0.578 -1.594,0.996 -1.594,0.996 l -8.389,3.014 v -2.224 l 6.174,-2.199 c 0.7,-0.257 0.805,-0.61 0.24,-0.795 -0.575,-0.188 -1.598,-0.133 -2.305,0.12 l -4.109,1.45 v -2.313 l 0.236,-0.08 c 0,0 1.19,-0.42 2.861,-0.601 1.67,-0.184 3.72,0.023 5.329,0.63 1.811,0.576 2.014,1.416 1.557,2.002 z m -10.714,-9.966 v 14.234 l -3.844,-1.218 v -16.978 c 1.636,0.301 4.013,1.023 5.295,1.449 3.249,1.118 4.353,2.51 4.353,5.634 0,3.054 -1.883,4.214 -4.276,3.055 v -5.685 c 0,-0.663 -0.123,-1.281 -0.749,-1.456 -0.48,-0.154 -0.779,0.292 -0.779,0.964 z m -0.343,-19.8770001 c 0.31,-0.032 0.612,0.015 0.912,0.138 -1.733,2.363 -2.232,6.531 -2.374,8.8620001 -0.713,10e-4 -1.4,0.004 -2.06,0.006 0.258,-5.5520001 1.508,-8.8000001 3.522,-9.0060001 z m -4.245,28.4100001 -3.9600002,1.419 c -0.7,0.25 -0.805,0.605 -0.24,0.789 0.575,0.194 1.595,0.14 2.297,-0.118 l 1.9030002,-0.686 v 1.995 c -0.122,0.021 -0.258,0.041 -0.383,0.063 -1.8980002,0.315 -3.9200002,0.185 -5.9170002,-0.475 -1.858,-0.52 -2.17,-1.614 -1.321,-2.245 0.783,-0.58 2.115,-1.013 2.115,-1.013 l 5.5060002,-1.963 z m 6.268,-27.4710001 c 1.655,1.714 2.778,5.254 3.256,8.0600001 -1.4,-0.002 -2.927,-0.002 -4.577,-0.002 h -0.784 c 0.158,-2.5670001 0.708,-6.2110001 2.105,-8.0580001 z m 2.033,-1.173 c 0.643,-0.004 1.24,0.304 1.82,0.937 1.754,1.914 2.661,6.003 3,8.2980001 l -2.194,-10e-4 c -0.494,-3.0570001 -1.723,-6.9550001 -3.622,-8.9820001 0.303,-0.158 0.634,-0.25 0.996,-0.252 z m 15.467,10.0960001 c -0.009,-0.173 -0.167,-0.31 -0.36,-0.307 l -3.672,-0.529 a 0.68,0.68 0 0 0 -0.105,-0.014 c -0.737,0 -2.481,-0.005 -5.11,-0.008 -0.311,-2.3930001 -1.22,-6.3800001 -2.934,-8.6960001 -0.954,-1.28999996 -2.063,-1.93999996 -3.294,-1.932999961357 A 3.496,3.496 0 0 0 18.030594,0.71705594 c -0.662,-0.389 -1.353,-0.547 -2.068,-0.475 -3.46,0.352 -4.541,5.44199996 -4.767,10.39700006 a 592.65,592.65 0 0 0 -9.1050002,0.111 c -0.221,0.004 -0.399,0.161 -0.411,0.361 -0.084,1.39 -0.406,6.844 -0.85900002,15.226 -0.48,8.864 -0.754,13.7 -0.81999999928,14.978 -0.0110000007,0.184 0.13199999928,0.343 0.33199999928,0.372 l 14.62000022,2.217 14.452,2.19 a 0.468,0.468 0 0 0 0.329,-0.073 v 0.002 l 7.141,-4.565 a 0.63,0.63 0 0 0 0.285,-0.548 z" fill="#0072ce"/></svg>