<svg xmlns="http://www.w3.org/2000/svg" width="448" height="512"><path d="m 257.2,162.7 c -48.7,1.8 -169.5,15.5 -169.5,117.5 0,109.5 138.3,114 183.5,43.2 6.5,10.2 35.4,37.5 45.3,46.8 l 56.8,-56 c 0,0 -32.3,-25.3 -32.3,-52.8 V 114.3 C 341,89 316.5,32 228.7,32 140.7,32 94,87 94,136.3 l 73.5,6.8 c 16.3,-49.5 54.2,-49.5 54.2,-49.5 40.7,-0.1 35.5,29.8 35.5,69.1 z m 0,86.8 c 0,80 -84.2,68 -84.2,17.2 0,-47.2 50.5,-56.7 84.2,-57.8 z" fill="#000"/><path d="m 393.2,413 c -7.7,10 -70,67 -174.5,67 -104.5,0 -184.5,-71.5 -209,-101 -6.8,-7.7 1,-11.3 5.5,-8.3 73.3,44.5 187.8,117.8 372.5,30.3 7.5,-3.7 13.3,2 5.5,12 z m 39.8,2.2 c -6.5,15.8 -16,26.8 -21.2,31 -5.5,4.5 -9.5,2.7 -6.5,-3.8 3,-6.5 19.3,-46.5 12.7,-55 -6.5,-8.3 -37,-4.3 -48,-3.2 -10.8,1 -13,2 -14,-0.3 -2.3,-5.7 21.7,-15.5 37.5,-17.5 15.7,-1.8 41,-0.8 46,5.7 3.7,5.1 0,27.1 -6.5,43.1 z" fill="#ff9a00"/></svg>