<svg width="512" height="512" xmlns="http://www.w3.org/2000/svg"><path fill="#0866ff" d="M 512,256 C 512,114.61529 397.38471,0 256,0 114.61529,0 0,114.61529 0,256 0,376.05887 82.652162,476.79693 194.15654,504.46132 V 334.2295 H 141.3673 V 256 h 52.78924 v -33.70906 c 0,-87.1342 39.43219,-127.520759 124.97716,-127.520759 16.21811,0 44.203,3.17952 55.65132,6.360059 v 70.9161 c -6.04262,-0.6359 -16.53657,-0.95437 -29.57516,-0.95437 -41.97683,0 -58.19597,15.90067 -58.19597,57.24159 V 256 h 83.61881 l -14.36466,78.2295 H 287.01389 V 510.12506 C 413.77075,494.81524 512,386.88563 512,256"/><path fill="#fff" d="m 356.26752,334.22991 14.3657,-78.22951 H 287.0144 v -27.66745 c 0,-41.34094 16.21811,-57.24057 58.19494,-57.24057 13.0386,0 23.53255,0.31744 29.57518,0.95334 v -70.91507 c -11.44833,-3.180542 -39.43323,-6.361091 -55.65134,-6.361091 -85.54393,0 -124.97715,40.387581 -124.97715,127.521791 v 33.70905 h -52.78925 v 78.22951 h 52.78925 v 170.2318 c 19.80723,4.91316 40.51763,7.5387 61.84346,7.5387 10.5001,0 20.84659,-0.64717 31.01491,-1.87494 V 334.22991 Z"/></svg>