<svg xmlns="http://www.w3.org/2000/svg" xmlns:xlink="http://www.w3.org/1999/xlink" width="132" height="132"><defs><radialGradient cx="158.429" cy="578.088" r="52.3515" xlink:href="#a" gradientUnits="userSpaceOnUse" gradientTransform="matrix(0,-2.012643,2.1353718,0,-1199.3713,461.02771)" fx="158.429" fy="578.088" id="f"/><radialGradient xlink:href="#b" gradientUnits="userSpaceOnUse" gradientTransform="matrix(0.33646157,-0.57973405,0.75474735,0.43803713,-442.11372,-32.916419)" cx="172.6149" cy="600.6924" fx="172.6149" fy="600.6924" r="65" id="g"/><radialGradient xlink:href="#c" id="h" cx="144.012" cy="51.3367" fx="144.012" fy="51.3367" r="67.081" gradientTransform="matrix(-1.1968056,0.33700038,-0.11478637,-0.40775904,196.15669,-22.224095)" gradientUnits="userSpaceOnUse"/><radialGradient xlink:href="#d" id="e" gradientUnits="userSpaceOnUse" gradientTransform="matrix(-1.550559,0.43729378,-0.31505387,-1.1171017,635.5132,676.53292)" cx="199.7884" cy="628.4379" fx="199.7884" fy="628.4379" r="52.3515"/><linearGradient id="d"><stop offset="0" stop-color="#ff005f" id="stop6"/><stop offset="1" stop-color="#fc01d8" id="stop8"/></linearGradient><linearGradient id="c"><stop offset="0" stop-color="#780cff" id="stop11"/><stop stop-color="#820bff" offset="1" stop-opacity="0" id="stop13"/></linearGradient><linearGradient id="b"><stop offset="0" stop-color="#fc0" id="stop16"/><stop offset="1" stop-color="#fc0" stop-opacity="0" id="stop18"/></linearGradient><linearGradient id="a"><stop offset="0" stop-color="#fc0" id="stop21"/><stop offset=".1242" stop-color="#fc0" id="stop23"/><stop offset=".5672" stop-color="#fe4a05" id="stop25"/><stop offset=".6942" stop-color="#ff0f3f" id="stop27"/><stop offset="1" stop-color="#fe0657" stop-opacity="0" id="stop29"/></linearGradient></defs><path d="M 66.021532,0 C 38.467166,0 30.408522,0.02843717 28.842083,0.15840001 23.187477,0.62856117 19.668852,1.5191434 15.835422,3.4281753 12.881249,4.895583 10.551347,6.5964748 8.251928,8.9808065 4.0642809,13.329049 1.5262887,18.678529 0.60751876,25.037429 c -0.44666307,3.087029 -0.57662591,3.716588 -0.6030176,19.484847 -0.01012762,5.256086 0,12.173452 0,21.451801 0,27.53955 0.03043276,35.592253 0.16244108,37.156103 0.45684058,5.50384 1.31973396,8.96659 3.14709636,12.75432 3.4922835,7.25043 10.1620464,12.69335 18.0196844,14.72431 2.720739,0.70066 5.725699,1.08655 9.583425,1.2693 1.634489,0.0711 18.293779,0.12188 34.963246,0.12188 16.669518,0 33.338986,-0.0203 34.932816,-0.10153 4.46688,-0.21023 7.0607,-0.55851 9.92861,-1.29982 7.90838,-2.04109 14.45641,-7.4028 18.01969,-14.7548 1.79184,-3.69634 2.70043,-7.29109 3.11162,-12.50757 C 131.96243,102.19899 132,84.065703 132,65.956865 c 0,-18.11198 -0.0406,-36.211738 -0.12996,-37.349075 -0.41623,-5.300738 -1.32483,-8.865013 -3.17449,-12.632438 -1.5177,-3.083986 -3.20292,-5.387097 -5.64952,-7.7418942 C 118.67968,4.0618751 113.33973,1.5231845 106.97649,0.60521275 103.8933,0.1593978 103.27916,0.02738948 87.503018,0 Z" fill="url(#e)"/><path d="M 66.021532,0 C 38.467166,0 30.408522,0.02843717 28.842083,0.15840001 23.187477,0.62856117 19.668852,1.5191434 15.835422,3.4281753 12.881249,4.895583 10.551347,6.5964748 8.251928,8.9808065 4.0642809,13.329049 1.5262887,18.678529 0.60751876,25.037429 c -0.44666307,3.087029 -0.57662591,3.716588 -0.6030176,19.484847 -0.01012762,5.256086 0,12.173452 0,21.451801 0,27.53955 0.03043276,35.592253 0.16244108,37.156103 0.45684058,5.50384 1.31973396,8.96659 3.14709636,12.75432 3.4922835,7.25043 10.1620464,12.69335 18.0196844,14.72431 2.720739,0.70066 5.725699,1.08655 9.583425,1.2693 1.634489,0.0711 18.293779,0.12188 34.963246,0.12188 16.669518,0 33.338986,-0.0203 34.932816,-0.10153 4.46688,-0.21023 7.0607,-0.55851 9.92861,-1.29982 7.90838,-2.04109 14.45641,-7.4028 18.01969,-14.7548 1.79184,-3.69634 2.70043,-7.29109 3.11162,-12.50757 C 131.96243,102.19899 132,84.065703 132,65.956865 c 0,-18.11198 -0.0406,-36.211738 -0.12996,-37.349075 -0.41623,-5.300738 -1.32483,-8.865013 -3.17449,-12.632438 -1.5177,-3.083986 -3.20292,-5.387097 -5.64952,-7.7418942 C 118.67968,4.0618751 113.33973,1.5231845 106.97649,0.60521275 103.8933,0.1593978 103.27916,0.02738948 87.503018,0 Z" fill="url(#f)"/><path d="M 66.021532,0 C 38.467166,0 30.408522,0.02843717 28.842083,0.15840001 23.187477,0.62856117 19.668852,1.5191434 15.835422,3.4281753 12.881249,4.895583 10.551347,6.5964748 8.251928,8.9808065 4.0642809,13.329049 1.5262887,18.678529 0.60751876,25.037429 c -0.44666307,3.087029 -0.57662591,3.716588 -0.6030176,19.484847 -0.01012762,5.256086 0,12.173452 0,21.451801 0,27.53955 0.03043276,35.592253 0.16244108,37.156103 0.45684058,5.50384 1.31973396,8.96659 3.14709636,12.75432 3.4922835,7.25043 10.1620464,12.69335 18.0196844,14.72431 2.720739,0.70066 5.725699,1.08655 9.583425,1.2693 1.634489,0.0711 18.293779,0.12188 34.963246,0.12188 16.669518,0 33.338986,-0.0203 34.932816,-0.10153 4.46688,-0.21023 7.0607,-0.55851 9.92861,-1.29982 7.90838,-2.04109 14.45641,-7.4028 18.01969,-14.7548 1.79184,-3.69634 2.70043,-7.29109 3.11162,-12.50757 C 131.96243,102.19899 132,84.065703 132,65.956865 c 0,-18.11198 -0.0406,-36.211738 -0.12996,-37.349075 -0.41623,-5.300738 -1.32483,-8.865013 -3.17449,-12.632438 -1.5177,-3.083986 -3.20292,-5.387097 -5.64952,-7.7418942 C 118.67968,4.0618751 113.33973,1.5231845 106.97649,0.60521275 103.8933,0.1593978 103.27916,0.02738948 87.503018,0 Z" fill="url(#g)"/><path d="M 66.021532,0 C 38.467166,0 30.408522,0.02843717 28.842083,0.15840001 23.187477,0.62856117 19.668852,1.5191434 15.835422,3.4281753 12.881249,4.895583 10.551347,6.5964748 8.251928,8.9808065 4.0642809,13.329049 1.5262887,18.678529 0.60751876,25.037429 c -0.44666307,3.087029 -0.57662591,3.716588 -0.6030176,19.484847 -0.01012762,5.256086 0,12.173452 0,21.451801 0,27.53955 0.03043276,35.592253 0.16244108,37.156103 0.45684058,5.50384 1.31973396,8.96659 3.14709636,12.75432 3.4922835,7.25043 10.1620464,12.69335 18.0196844,14.72431 2.720739,0.70066 5.725699,1.08655 9.583425,1.2693 1.634489,0.0711 18.293779,0.12188 34.963246,0.12188 16.669518,0 33.338986,-0.0203 34.932816,-0.10153 4.46688,-0.21023 7.0607,-0.55851 9.92861,-1.29982 7.90838,-2.04109 14.45641,-7.4028 18.01969,-14.7548 1.79184,-3.69634 2.70043,-7.29109 3.11162,-12.50757 C 131.96243,102.19899 132,84.065703 132,65.956865 c 0,-18.11198 -0.0406,-36.211738 -0.12996,-37.349075 -0.41623,-5.300738 -1.32483,-8.865013 -3.17449,-12.632438 -1.5177,-3.083986 -3.20292,-5.387097 -5.64952,-7.7418942 C 118.67968,4.0618751 113.33973,1.5231845 106.97649,0.60521275 103.8933,0.1593978 103.27916,0.02738948 87.503018,0 Z" fill="url(#h)"/><path d="m 66.026721,16.94905 c -13.328899,0 -15.001653,0.05822 -20.236735,0.296296 -5.224806,0.239071 -8.791176,1.065645 -11.91178,2.278465 -3.227918,1.252583 -5.966118,2.92818 -8.694041,5.655105 -2.729968,2.725977 -4.406862,5.462081 -5.664484,8.686607 -1.216761,3.119307 -2.044981,6.684031 -2.280112,11.902949 -0.234132,5.231142 -0.295497,6.903696 -0.295497,20.222717 0,13.319071 0.05932,14.985439 0.296495,20.216581 0.240319,5.220964 1.067492,8.78469 2.280112,11.90295 1.254578,3.22557 2.931423,5.96168 5.660393,8.6876 2.726975,2.72798 5.465125,4.40772 8.690997,5.6603 3.122601,1.21277 6.690068,2.03934 11.913826,2.27846 5.235082,0.23798 6.906788,0.29625 20.23469,0.29625 13.329946,0 14.997612,-0.0582 20.232645,-0.2963 5.224855,-0.23907 8.795316,-1.06564 11.917916,-2.27846 3.226924,-1.25253 5.961034,-2.93227 8.687954,-5.66025 2.72997,-2.72592 4.40686,-5.46203 5.66448,-8.686552 1.20649,-3.119308 2.03471,-6.684032 2.28012,-11.90295 0.23513,-5.231142 0.29649,-6.898608 0.29649,-20.217629 0,-13.31907 -0.0614,-14.990527 -0.29649,-20.221719 -0.24541,-5.220964 -1.07363,-8.78464 -2.28012,-11.9029 -1.25762,-3.225573 -2.93451,-5.961727 -5.66448,-8.687654 -2.73002,-2.727972 -5.46004,-4.40357 -8.690997,-5.655155 -3.128787,-1.21277 -6.697202,-2.039344 -11.922008,-2.278415 -5.235083,-0.238074 -6.9017,-0.296296 -20.23469,-0.296296 z m -4.402772,8.837823 c 1.306763,-0.002 2.764791,0 4.402772,0 13.103996,0 14.657114,0.047 19.831831,0.281977 4.785177,0.218667 7.382238,1.017601 9.112266,1.688868 2.290339,0.888886 3.923231,1.951488 5.639942,3.667946 1.71775,1.716507 2.7811,3.351245 3.67273,5.639838 0.67177,1.726685 1.47235,4.321851 1.69012,9.103486 0.23518,5.169827 0.28631,6.722845 0.28631,19.810976 0,13.088082 -0.0511,14.64115 -0.28631,19.810977 -0.21882,4.781585 -1.01835,7.376751 -1.69012,9.103436 -0.88953,2.288643 -1.95498,3.918292 -3.67273,5.633703 -1.717709,1.71651 -3.348605,2.77906 -5.639942,3.66794 -1.727982,0.67436 -4.327089,1.47125 -9.112266,1.68992 -5.173669,0.23498 -6.727835,0.28607 -19.831831,0.28607 -13.104994,0 -14.658112,-0.0511 -19.83183,-0.28607 -4.785127,-0.22066 -7.382188,-1.01965 -9.113264,-1.69091 -2.290339,-0.88889 -3.926324,-1.95149 -5.644029,-3.66795 -1.717754,-1.716457 -2.781105,-3.347104 -3.672735,-5.636794 -0.671765,-1.726685 -1.472347,-4.321851 -1.690115,-9.103436 -0.235181,-5.169877 -0.282227,-6.722846 -0.282227,-19.819159 0,-13.096263 0.04705,-14.641149 0.282227,-19.810976 0.218816,-4.781635 1.01835,-7.376751 1.690115,-9.105481 0.889535,-2.288644 1.954981,-3.923381 3.672735,-5.639839 1.717705,-1.716507 3.35369,-2.779059 5.644029,-3.669991 1.730028,-0.67436 4.328137,-1.471249 9.113264,-1.690964 4.527496,-0.204348 6.282069,-0.265613 15.429108,-0.27589 z m 30.600537,8.143007 c -3.251466,0 -5.889487,2.632983 -5.889487,5.883002 0,3.249071 2.638021,5.885096 5.889487,5.885096 3.251416,0 5.889437,-2.636025 5.889437,-5.885096 0,-3.249022 -2.638021,-5.884997 -5.889487,-5.884997 z m -26.197765,6.876107 c -13.918896,0 -25.20386,11.276634 -25.20386,25.185202 0,13.908569 11.284964,25.180064 25.20386,25.180064 13.918896,0 25.19982,-11.271495 25.19982,-25.180064 0,-13.908568 -11.281922,-25.185202 -25.200818,-25.185202 z m 0,8.837823 c 9.034538,0 16.359553,7.318529 16.359553,16.347379 0,9.027853 -7.325015,16.34738 -16.359553,16.34738 -9.035536,0 -16.359502,-7.319527 -16.359502,-16.34738 0,-9.02885 7.323966,-16.347379 16.359502,-16.347379 z" fill="#fff"/></svg>