<svg width="180" height="138" xmlns="http://www.w3.org/2000/svg"><path fill="#5865f2" d="M 152.46371,11.55746 C 140.8145,6.15825 128.35861,2.2343 115.33633,0 113.73704,2.86431 111.8686,6.7169 110.58039,9.7816 96.737374,7.7193 83.021639,7.7193 69.433201,9.7816 68.145232,6.7169 66.234368,2.86431 64.620766,0 51.584424,2.2343 39.114231,6.17269 27.465024,11.58606 3.9684684,46.75918 -2.4010613,81.05869 0.78371002,114.87114 16.367859,126.39976 31.47078,133.40308 46.31882,137.98582 c 3.666062,-4.99819 6.935694,-10.31138 9.752406,-15.91101 -5.364526,-2.01925 -10.502594,-4.51113 -15.357457,-7.40406 1.287972,-0.94525 2.547818,-1.93349 3.764988,-2.95033 29.611215,13.71995 61.784553,13.71995 91.042013,0 1.23147,1.01684 2.49108,2.00508 3.76499,2.95033 -4.86918,2.90711 -10.0213,5.39898 -15.38583,7.4185 2.81671,5.58519 6.07228,10.91282 9.75241,15.91075 14.86234,-4.58276 29.97928,-11.5858 45.56344,-23.12886 3.73687,-39.19725 -6.3836,-73.18175 -26.75207,-103.31368 z M 60.105349,94.07679 c -8.888988,0 -16.178686,-8.22055 -16.178686,-18.23112 0,-10.01057 7.134036,-18.24525 16.178686,-18.24525 9.044898,0 16.334348,8.22028 16.178688,18.24525 0.01398,10.01057 -7.13379,18.23112 -16.178688,18.23112 z m 59.788821,0 c -8.88898,0 -16.17868,-8.22055 -16.17868,-18.23112 0,-10.01057 7.13379,-18.24525 16.17868,-18.24525 9.04466,0 16.33435,8.22028 16.1787,18.24525 0,10.01057 -7.13404,18.23112 -16.1787,18.23112 z"/></svg>