<svg xmlns="http://www.w3.org/2000/svg" width="257.52072" height="291"><path fill="#FF004F" d="m 190.85278,105.04483 c 18.78946,13.42447 41.8074,21.32315 66.66794,21.32315 V 78.553422 c -4.70486,9.98e-4 -9.39773,-0.489361 -14.00072,-1.464088 v 37.636856 c -24.85854,0 -47.87348,-7.89869 -66.66794,-21.322161 v 97.575581 c 0,48.81226 -39.5903,88.37959 -88.424532,88.37959 -18.221206,0 -35.157091,-5.50581 -49.225719,-14.94848 C 55.258841,280.82029 77.651599,291 102.42525,291 c 48.83723,0 88.42952,-39.56733 88.42952,-88.38159 V 105.04483 Z M 208.12422,56.805821 C 198.52176,46.320513 192.21699,32.770207 190.85278,17.789769 V 11.6398 H 177.5851 c 3.33964,19.040137 14.73077,35.306895 30.53912,45.166021 z M 70.089474,226.95363 c -5.364994,-7.03081 -8.264208,-15.63158 -8.251225,-24.47504 0,-22.32484 18.108353,-40.4262 40.449181,-40.4262 4.16356,-0.001 8.30216,0.63616 12.26998,1.89452 v -48.88317 c -4.63695,-0.63517 -9.31684,-0.90481 -13.99473,-0.80594 v 38.04831 c -3.970814,-1.25835 -8.111407,-1.89752 -12.275968,-1.89353 -22.340827,0 -40.448182,18.09937 -40.448182,40.42721 0,15.78739 9.051181,29.45554 22.250944,36.11384 z"/><path d="m 176.85206,93.40303 c 18.79446,13.42347 41.8094,21.32216 66.66794,21.32216 V 77.088335 C 229.64412,74.134192 217.36016,66.886657 208.12422,56.805821 192.31487,46.945696 180.92474,30.678938 177.5851,11.6398 h -34.85049 v 190.97661 c -0.0789,22.26393 -18.15629,40.29139 -40.44918,40.29139 -13.136844,0 -24.807604,-6.25883 -32.198952,-15.95417 -13.198764,-6.6583 -22.249945,-20.32745 -22.249945,-36.11284 0,-22.32584 18.107355,-40.42721 40.448181,-40.42721 4.280411,0 8.406023,0.66613 12.275966,1.89353 V 114.2588 c -47.976347,0.9907 -86.560961,40.17154 -86.560961,88.35861 0,24.05459 9.608452,45.86112 25.203088,61.79431 14.068629,9.44167 31.004513,14.94848 49.225719,14.94848 48.835234,0 88.424534,-39.56933 88.424534,-88.38059 V 93.40303 Z"/><path fill="#00F2EA" d="M 243.52,77.088335 V 66.911624 c -12.51266,0.01897 -24.77964,-3.483451 -35.39578,-10.106802 9.39773,10.283571 21.77257,17.374312 35.39578,20.283513 z M 177.5851,11.6398 C 177.26652,9.8201764 177.02184,7.9885682 176.85206,6.1499691 V 0 H 128.7329 v 190.97861 c -0.0769,22.26093 -18.1533,40.28839 -40.448186,40.28839 -6.545453,0 -12.725383,-1.55297 -18.198236,-4.31237 7.391348,9.69434 19.062108,15.95217 32.198952,15.95217 22.29089,0 40.37128,-18.02546 40.44918,-40.28939 V 11.6398 Z m -77.02242,102.619 V 103.42494 C 96.541931,102.87566 92.488225,102.60002 88.429525,102.60202 39.590301,102.60102 0,142.17035 0,190.97861 0,221.57865 15.559682,248.54644 39.203806,264.40972 23.60917,248.47753 14.000717,226.67 14.000717,202.61641 c 0,-48.18607 38.583616,-87.36691 86.561963,-88.35761 z"/></svg>
